<svg width="228" height="72" viewBox="0 0 228 72" fill="none" xmlns="http://www.w3.org/2000/svg">
<path d="M72.5385 36.2906C71.4378 36.9225 70.1026 37.4219 68.533 37.7888C66.9634 38.1558 65.3326 38.3392 63.6407 38.3392C61.3576 38.3392 59.4109 38.064 57.8006 37.5137C56.2106 36.9633 55.0079 36.1989 54.1925 35.2204C53.3975 34.2419 53 33.1106 53 31.8264C53 30.7052 53.3058 29.7166 53.9173 28.8604C54.5288 28.0043 55.3748 27.3418 56.4552 26.8729C55.6194 26.4449 54.9773 25.8537 54.5288 25.0995C54.1008 24.3249 53.8867 23.4789 53.8867 22.5616C53.8867 21.3793 54.2536 20.2989 54.9875 19.3205C55.7417 18.342 56.8832 17.5572 58.4121 16.9661C59.9409 16.3749 61.8265 16.0793 64.0688 16.0793C65.4753 16.0793 66.8615 16.2118 68.2272 16.4768C69.593 16.7418 70.7957 17.0986 71.8353 17.547L70.1841 22.0724C68.2884 21.2366 66.3315 20.8187 64.3134 20.8187C62.8661 20.8187 61.7857 21.0124 61.0723 21.3997C60.3588 21.7666 60.0021 22.2864 60.0021 22.9591C60.0021 24.1822 60.8888 24.7937 62.6623 24.7937H68.7165V29.4108H62.2648C61.2251 29.4108 60.4403 29.5841 59.9103 29.9306C59.3804 30.2568 59.1154 30.746 59.1154 31.3983C59.1154 32.0914 59.5027 32.6316 60.2773 33.0189C61.0519 33.4062 62.2546 33.5998 63.8853 33.5998C65.0472 33.5998 66.2397 33.4469 67.4628 33.1412C68.7063 32.815 69.7866 32.3768 70.7039 31.8264L72.5385 36.2906Z" fill="black"/>
<path d="M88.1224 29.2274C90.0182 29.8593 90.9661 31.1639 90.9661 33.1412C90.9661 34.6292 90.3851 35.8014 89.2232 36.6575C88.0613 37.4933 86.349 37.9112 84.0863 37.9112H74.7604V21.3385H83.6582C85.819 21.3385 87.4905 21.7157 88.6728 22.4699C89.8755 23.2241 90.4768 24.2841 90.4768 25.6499C90.4768 26.4449 90.273 27.1481 89.8653 27.7597C89.4576 28.3712 88.8767 28.8604 88.1224 29.2274ZM79.9584 28.0043H83.1384C84.4838 28.0043 85.1565 27.5049 85.1565 26.506C85.1565 25.5479 84.4838 25.0689 83.1384 25.0689H79.9584V28.0043ZM83.5665 34.1502C84.973 34.1502 85.6763 33.6406 85.6763 32.6214C85.6763 31.6021 84.9934 31.0925 83.6276 31.0925H79.9584V34.1502H83.5665Z" fill="black"/>
<path d="M101.667 32.0098H99.7103V37.9112H93.9007V21.3385H99.7103V27.4539H101.79L105.856 21.3385H112.002L106.437 29.2885L112.369 37.9112H105.52L101.667 32.0098Z" fill="black"/>
<path d="M131.174 21.3385V37.9112H125.364V25.9556H121.175L121.053 28.4935C120.971 30.6543 120.757 32.4379 120.411 33.8444C120.064 35.251 119.493 36.3517 118.698 37.1467C117.903 37.9213 116.813 38.3087 115.427 38.3087C114.713 38.3087 113.775 38.1761 112.613 37.9112L112.858 33.1718C113.225 33.2125 113.47 33.2329 113.592 33.2329C114.224 33.2329 114.703 33.0291 115.029 32.6214C115.355 32.2137 115.579 31.6735 115.702 31.0008C115.824 30.3077 115.906 29.3904 115.946 28.2489L116.191 21.3385H131.174Z" fill="black"/>
<path d="M152.14 21.3385V37.9112H146.605V36.1683C145.994 36.8206 145.26 37.32 144.404 37.6665C143.568 38.0131 142.671 38.1863 141.713 38.1863C139.552 38.1863 137.83 37.5544 136.545 36.2906C135.282 35.0267 134.65 33.131 134.65 30.6033V21.3385H140.459V29.6554C140.459 32.0404 141.387 33.2329 143.242 33.2329C144.159 33.2329 144.903 32.9169 145.474 32.285C146.045 31.6327 146.33 30.6441 146.33 29.3191V21.3385H152.14Z" fill="black"/>
<path d="M173.682 21.3385V34.8841C173.682 37.9621 172.847 40.2656 171.175 41.7944C169.504 43.3436 167.098 44.1182 163.959 44.1182C162.328 44.1182 160.799 43.9348 159.372 43.5679C157.946 43.2009 156.733 42.6607 155.734 41.9473L157.844 37.8806C158.516 38.431 159.362 38.859 160.382 39.1648C161.421 39.491 162.44 39.654 163.439 39.654C164.968 39.654 166.089 39.3177 166.803 38.645C167.516 37.9723 167.873 36.9735 167.873 35.6485V35.0981C166.752 36.4027 165.111 37.055 162.95 37.055C161.482 37.055 160.127 36.7289 158.883 36.0765C157.64 35.4039 156.651 34.4662 155.917 33.2635C155.183 32.0404 154.817 30.6339 154.817 29.0439C154.817 27.4743 155.183 26.0881 155.917 24.8855C156.651 23.6624 157.64 22.7247 158.883 22.0724C160.127 21.3997 161.482 21.0634 162.95 21.0634C165.315 21.0634 167.047 21.8278 168.148 23.3566V21.3385H173.682ZM164.326 32.4379C165.366 32.4379 166.222 32.122 166.894 31.49C167.587 30.8581 167.934 30.0427 167.934 29.0439C167.934 28.0451 167.598 27.2399 166.925 26.6283C166.252 25.9964 165.386 25.6804 164.326 25.6804C163.266 25.6804 162.389 25.9964 161.696 26.6283C161.024 27.2399 160.687 28.0451 160.687 29.0439C160.687 30.0427 161.034 30.8581 161.727 31.49C162.42 32.122 163.286 32.4379 164.326 32.4379Z" fill="black"/>
<path d="M62.4259 46.0099V55.9886H59.6319V48.248H55.8399V55.9886H53.0601V46.0099H62.4259Z" fill="black"/>
<path d="M68.5363 48.1339C69.3822 48.1339 70.1187 48.2955 70.7459 48.6186C71.3732 48.9417 71.8531 49.4074 72.1857 50.0156C72.5278 50.6143 72.6989 51.3176 72.6989 52.1254C72.6989 52.9237 72.5421 53.627 72.2285 54.2352C71.9149 54.8339 71.4729 55.2996 70.9027 55.6322C70.3325 55.9554 69.672 56.1169 68.9212 56.1169C68.0374 56.1169 67.3436 55.8461 66.84 55.3044V58.7542H64.1314V52.1539C64.1314 51.3556 64.312 50.6524 64.6731 50.0441C65.0343 49.4359 65.5475 48.9655 66.2127 48.6329C66.878 48.3002 67.6525 48.1339 68.5363 48.1339ZM68.408 53.9644C68.8927 53.9644 69.2824 53.798 69.577 53.4654C69.8811 53.1233 70.0332 52.6766 70.0332 52.1254C70.0332 51.5742 69.8811 51.1323 69.577 50.7997C69.2824 50.4575 68.8927 50.2865 68.408 50.2865C67.9234 50.2865 67.5337 50.4575 67.2391 50.7997C66.9445 51.1323 66.7972 51.5742 66.7972 52.1254C66.7972 52.6861 66.9397 53.1328 67.2248 53.4654C67.5195 53.798 67.9139 53.9644 68.408 53.9644Z" fill="black"/>
<path d="M77.8141 56.1169C76.9873 56.1169 76.2413 55.9459 75.576 55.6037C74.9108 55.2616 74.3881 54.7864 74.008 54.1782C73.6373 53.57 73.452 52.881 73.452 52.1112C73.452 51.3509 73.6373 50.6666 74.008 50.0584C74.3881 49.4502 74.906 48.9797 75.5618 48.6471C76.227 48.305 76.9778 48.1339 77.8141 48.1339C78.6505 48.1339 79.4012 48.305 80.0665 48.6471C80.7317 48.9797 81.2497 49.4502 81.6203 50.0584C81.991 50.6571 82.1763 51.3414 82.1763 52.1112C82.1763 52.881 81.991 53.57 81.6203 54.1782C81.2497 54.7864 80.7317 55.2616 80.0665 55.6037C79.4012 55.9459 78.6505 56.1169 77.8141 56.1169ZM77.8141 53.9644C78.2893 53.9644 78.679 53.8028 78.9831 53.4797C79.2872 53.1471 79.4393 52.6909 79.4393 52.1112C79.4393 51.5409 79.2872 51.0943 78.9831 50.7712C78.679 50.448 78.2893 50.2865 77.8141 50.2865C77.339 50.2865 76.9493 50.448 76.6452 50.7712C76.3411 51.0943 76.189 51.5409 76.189 52.1112C76.189 52.6909 76.3411 53.1471 76.6452 53.4797C76.9493 53.8028 77.339 53.9644 77.8141 53.9644Z" fill="black"/>
<path d="M87.5379 54.0499C87.9085 54.0499 88.2269 53.9976 88.493 53.8931C88.7686 53.7885 89.0442 53.6175 89.3198 53.3799L90.7311 54.8625C89.9993 55.6988 88.9064 56.1169 87.4523 56.1169C86.5495 56.1169 85.7559 55.9459 85.0717 55.6037C84.3874 55.2616 83.8552 54.7864 83.4751 54.1782C83.1044 53.57 82.9191 52.881 82.9191 52.1112C82.9191 51.3509 83.1044 50.6714 83.4751 50.0726C83.8457 49.4644 84.3542 48.9892 85.0004 48.6471C85.6562 48.305 86.3879 48.1339 87.1957 48.1339C87.9465 48.1339 88.6308 48.2907 89.2485 48.6043C89.8758 48.9085 90.3747 49.3599 90.7453 49.9586C91.116 50.5478 91.3013 51.2511 91.3013 52.0684L85.7845 53.1233C86.0791 53.741 86.6635 54.0499 87.5379 54.0499ZM87.21 50.0584C86.7443 50.0584 86.3642 50.2057 86.0696 50.5003C85.775 50.7854 85.6086 51.1988 85.5706 51.7405L88.7068 51.1275C88.6118 50.8044 88.4312 50.5478 88.1651 50.3577C87.899 50.1582 87.5806 50.0584 87.21 50.0584Z" fill="black"/>
<path d="M96.2137 53.2373H95.3014V55.9886H92.5928V48.2622H95.3014V51.1133H96.2707L98.1667 48.2622H101.032L98.4376 51.9686L101.203 55.9886H98.0099L96.2137 53.2373Z" fill="black"/>
<path d="M112.165 48.1339C113.116 48.1339 113.871 48.419 114.432 48.9892C115.002 49.5594 115.287 50.4195 115.287 51.5695V55.9886H112.579V52.0114C112.579 51.4697 112.474 51.0705 112.265 50.8139C112.066 50.5573 111.78 50.429 111.41 50.429C111.001 50.429 110.673 50.5716 110.426 50.8567C110.179 51.1418 110.056 51.5742 110.056 52.1539V55.9886H107.347V52.0114C107.347 50.9565 106.957 50.429 106.178 50.429C105.76 50.429 105.427 50.5716 105.18 50.8567C104.933 51.1418 104.81 51.5742 104.81 52.1539V55.9886H102.101V48.2622H104.681V49.0748C104.966 48.7611 105.304 48.5283 105.693 48.3763C106.093 48.2147 106.525 48.1339 106.991 48.1339C107.532 48.1339 108.017 48.2337 108.445 48.4333C108.872 48.6329 109.219 48.937 109.485 49.3456C109.789 48.956 110.174 48.6566 110.64 48.4475C111.106 48.2385 111.614 48.1339 112.165 48.1339Z" fill="black"/>
<path d="M116.927 48.2622H119.621V51.1275H122.401V48.2622H125.11V55.9886H122.401V53.2801H119.621V55.9886H116.927V48.2622Z" fill="black"/>
<path d="M130.615 56.2167C128.058 56.2167 126.78 55.119 126.78 52.9237V48.2622H129.474V50.7141C129.674 50.5811 129.94 50.4718 130.272 50.3863C130.615 50.3007 131.004 50.258 131.441 50.258C132.392 50.258 133.138 50.5003 133.679 50.985C134.221 51.4602 134.492 52.1682 134.492 53.109C134.492 54.1259 134.14 54.9005 133.437 55.4327C132.743 55.9554 131.802 56.2167 130.615 56.2167ZM135.133 48.2622H137.842V55.9886H135.133V48.2622ZM130.615 54.3635C130.985 54.3635 131.266 54.2542 131.456 54.0356C131.646 53.8171 131.741 53.5272 131.741 53.1661C131.741 52.8144 131.646 52.5388 131.456 52.3392C131.266 52.1397 130.99 52.0399 130.629 52.0399C130.372 52.0399 130.144 52.0874 129.945 52.1824C129.745 52.2775 129.588 52.4058 129.474 52.5673V53.1661C129.474 53.5367 129.569 53.8313 129.759 54.0499C129.949 54.259 130.234 54.3635 130.615 54.3635Z" fill="black"/>
<path d="M143.752 54.0499C144.123 54.0499 144.441 53.9976 144.707 53.8931C144.983 53.7885 145.258 53.6175 145.534 53.3799L146.945 54.8625C146.213 55.6988 145.12 56.1169 143.666 56.1169C142.764 56.1169 141.97 55.9459 141.286 55.6037C140.602 55.2616 140.069 54.7864 139.689 54.1782C139.319 53.57 139.133 52.881 139.133 52.1112C139.133 51.3509 139.319 50.6714 139.689 50.0726C140.06 49.4644 140.568 48.9892 141.215 48.6471C141.87 48.305 142.602 48.1339 143.41 48.1339C144.161 48.1339 144.845 48.2907 145.463 48.6043C146.09 48.9085 146.589 49.3599 146.959 49.9586C147.33 50.5478 147.515 51.2511 147.515 52.0684L141.999 53.1233C142.293 53.741 142.878 54.0499 143.752 54.0499ZM143.424 50.0584C142.958 50.0584 142.578 50.2057 142.284 50.5003C141.989 50.7854 141.823 51.1988 141.785 51.7405L144.921 51.1275C144.826 50.8044 144.645 50.5478 144.379 50.3577C144.113 50.1582 143.795 50.0584 143.424 50.0584Z" fill="black"/>
<path d="M156.833 56.1169C155.978 56.1169 155.213 55.9459 154.538 55.6037C153.863 55.2616 153.336 54.7864 152.955 54.1782C152.585 53.57 152.4 52.881 152.4 52.1112C152.4 51.3414 152.585 50.6571 152.955 50.0584C153.336 49.4502 153.863 48.9797 154.538 48.6471C155.213 48.305 155.978 48.1339 156.833 48.1339C157.707 48.1339 158.463 48.324 159.1 48.7041C159.736 49.0748 160.188 49.5927 160.454 50.258L158.358 51.3271C158.007 50.6334 157.493 50.2865 156.819 50.2865C156.334 50.2865 155.93 50.448 155.607 50.7712C155.293 51.0943 155.137 51.5409 155.137 52.1112C155.137 52.6909 155.293 53.1471 155.607 53.4797C155.93 53.8028 156.334 53.9644 156.819 53.9644C157.493 53.9644 158.007 53.6175 158.358 52.9237L160.454 53.9929C160.188 54.6581 159.736 55.1808 159.1 55.561C158.463 55.9316 157.707 56.1169 156.833 56.1169Z" fill="black"/>
<path d="M169.541 48.2622V55.9886H166.961V55.1761C166.676 55.4802 166.334 55.713 165.935 55.8746C165.545 56.0361 165.127 56.1169 164.68 56.1169C163.673 56.1169 162.87 55.8223 162.271 55.2331C161.682 54.6439 161.387 53.76 161.387 52.5816V48.2622H164.096V52.1397C164.096 53.2516 164.528 53.8076 165.393 53.8076C165.821 53.8076 166.167 53.6602 166.433 53.3656C166.7 53.0615 166.833 52.6006 166.833 51.9829V48.2622H169.541Z" fill="black"/>
<path d="M175.237 56.1169C174.382 56.1169 173.616 55.9459 172.942 55.6037C172.267 55.2616 171.74 54.7864 171.359 54.1782C170.989 53.57 170.803 52.881 170.803 52.1112C170.803 51.3414 170.989 50.6571 171.359 50.0584C171.74 49.4502 172.267 48.9797 172.942 48.6471C173.616 48.305 174.382 48.1339 175.237 48.1339C176.111 48.1339 176.867 48.324 177.503 48.7041C178.14 49.0748 178.592 49.5927 178.858 50.258L176.762 51.3271C176.411 50.6334 175.897 50.2865 175.223 50.2865C174.738 50.2865 174.334 50.448 174.011 50.7712C173.697 51.0943 173.54 51.5409 173.54 52.1112C173.54 52.6909 173.697 53.1471 174.011 53.4797C174.334 53.8028 174.738 53.9644 175.223 53.9644C175.897 53.9644 176.411 53.6175 176.762 52.9237L178.858 53.9929C178.592 54.6581 178.14 55.1808 177.503 55.561C176.867 55.9316 176.111 56.1169 175.237 56.1169Z" fill="black"/>
<path d="M190.055 48.1339C191.005 48.1339 191.761 48.419 192.321 48.9892C192.892 49.5594 193.177 50.4195 193.177 51.5695V55.9886H190.468V52.0114C190.468 51.4697 190.364 51.0705 190.155 50.8139C189.955 50.5573 189.67 50.429 189.299 50.429C188.891 50.429 188.563 50.5716 188.316 50.8567C188.069 51.1418 187.945 51.5742 187.945 52.1539V55.9886H185.237V52.0114C185.237 50.9565 184.847 50.429 184.068 50.429C183.649 50.429 183.317 50.5716 183.07 50.8567C182.823 51.1418 182.699 51.5742 182.699 52.1539V55.9886H179.991V48.2622H182.571V49.0748C182.856 48.7611 183.193 48.5283 183.583 48.3763C183.982 48.2147 184.414 48.1339 184.88 48.1339C185.422 48.1339 185.907 48.2337 186.334 48.4333C186.762 48.6329 187.109 48.937 187.375 49.3456C187.679 48.956 188.064 48.6566 188.53 48.4475C188.995 48.2385 189.504 48.1339 190.055 48.1339Z" fill="black"/>
<path d="M198.908 54.0499C199.279 54.0499 199.597 53.9976 199.863 53.8931C200.139 53.7885 200.414 53.6175 200.69 53.3799L202.101 54.8625C201.369 55.6988 200.277 56.1169 198.822 56.1169C197.92 56.1169 197.126 55.9459 196.442 55.6037C195.758 55.2616 195.225 54.7864 194.845 54.1782C194.475 53.57 194.289 52.881 194.289 52.1112C194.289 51.3509 194.475 50.6714 194.845 50.0726C195.216 49.4644 195.724 48.9892 196.371 48.6471C197.026 48.305 197.758 48.1339 198.566 48.1339C199.317 48.1339 200.001 48.2907 200.619 48.6043C201.246 48.9085 201.745 49.3599 202.115 49.9586C202.486 50.5478 202.671 51.2511 202.671 52.0684L197.155 53.1233C197.449 53.741 198.034 54.0499 198.908 54.0499ZM198.58 50.0584C198.114 50.0584 197.734 50.2057 197.44 50.5003C197.145 50.7854 196.979 51.1988 196.941 51.7405L200.077 51.1275C199.982 50.8044 199.801 50.5478 199.535 50.3577C199.269 50.1582 198.951 50.0584 198.58 50.0584Z" fill="black"/>
<path d="M211.461 55.9886V51.9258L209.48 55.3044H208.325L206.401 51.8688V55.9886H203.963V48.2622H206.814L208.967 52.2965L211.333 48.2622H213.885L213.899 55.9886H211.461Z" fill="black"/>
<path d="M219.404 56.2167C216.848 56.2167 215.57 55.119 215.57 52.9237V48.2622H218.264V50.7141C218.464 50.5811 218.73 50.4718 219.062 50.3863C219.404 50.3007 219.794 50.258 220.231 50.258C221.182 50.258 221.928 50.5003 222.469 50.985C223.011 51.4602 223.282 52.1682 223.282 53.109C223.282 54.1259 222.93 54.9005 222.227 55.4327C221.533 55.9554 220.592 56.2167 219.404 56.2167ZM223.923 48.2622H226.632V55.9886H223.923V48.2622ZM219.404 54.3635C219.775 54.3635 220.055 54.2542 220.245 54.0356C220.436 53.8171 220.531 53.5272 220.531 53.1661C220.531 52.8144 220.436 52.5388 220.245 52.3392C220.055 52.1397 219.78 52.0399 219.419 52.0399C219.162 52.0399 218.934 52.0874 218.734 52.1824C218.535 52.2775 218.378 52.4058 218.264 52.5673V53.1661C218.264 53.5367 218.359 53.8313 218.549 54.0499C218.739 54.259 219.024 54.3635 219.404 54.3635Z" fill="black"/>
<path d="M11.3448 42.7144L19.3505 24.2754H22.0363V29.492L16.3548 42.7144H20.5901V40.3385C20.5901 39.76 21.5542 39.7187 22.0363 39.7704V47.053C20.7141 47.053 20.5212 46.6054 20.5901 46.3816V44.3156H15.5801L3.18409 71.9999H2.71924L5.86988 62.4447C5.86988 62.4447 3.08079 61.36 4.01049 59.0358C4.94018 56.7115 10.5184 44.3156 10.5184 44.3156H4.01049V42.7144H11.3448Z" fill="#FF9900"/>
<path d="M32.2113 42.7144L24.2056 24.2754H21.5198V29.492L27.2013 42.7144H22.966V40.3385C22.966 39.76 22.0019 39.7187 21.5198 39.7704V47.053C22.8421 47.053 23.0349 46.6054 22.966 46.3816V44.3156H27.9761L40.372 71.9999H40.8369L37.6862 62.4447C37.6862 62.4447 40.4753 61.36 39.5456 59.0358C38.6159 56.7115 33.0377 44.3156 33.0377 44.3156H39.5456V42.7144H32.2113Z" fill="#FF9900"/>
<path fill-rule="evenodd" clip-rule="evenodd" d="M21.83 21.5897C24.8537 21.5897 27.3049 19.1385 27.3049 16.1148C27.3049 13.0911 24.8537 10.6399 21.83 10.6399C18.8063 10.6399 16.3551 13.0911 16.3551 16.1148C16.3551 19.1385 18.8063 21.5897 21.83 21.5897ZM21.83 24.5854C26.5081 24.5854 30.3006 20.793 30.3006 16.1148C30.3006 11.4366 26.5081 7.64419 21.83 7.64419C17.1518 7.64419 13.3594 11.4366 13.3594 16.1148C13.3594 20.793 17.1518 24.5854 21.83 24.5854Z" fill="black"/>
<path d="M20.2805 0H23.3795V8.16069H20.2805V0Z" fill="black"/>
</svg>
